<mxfile host="app.diagrams.net" modified="2023-11-12T00:33:44.118Z" agent="Mozilla/5.0 (Macintosh; Intel Mac OS X 10_15_7) AppleWebKit/537.36 (KHTML, like Gecko) Chrome/119.0.0.0 Safari/537.36" etag="AA0NsFkVpC0UIWu4cih9" version="22.1.0" type="device" pages="4">
  <diagram id="R2lEEEUBdFMjLlhIrx00" name="customer">
    <mxGraphModel dx="1318" dy="870" grid="1" gridSize="10" guides="1" tooltips="1" connect="1" arrows="1" fold="1" page="1" pageScale="1" pageWidth="1100" pageHeight="850" math="0" shadow="0" extFonts="Permanent Marker^https://fonts.googleapis.com/css?family=Permanent+Marker">
      <root>
        <mxCell id="0" />
        <mxCell id="1" parent="0" />
        <mxCell id="ugbAvfdmD2CdIIh8Tc3_-12" value="Customer" style="whiteSpace=wrap;html=1;align=center;strokeColor=#FFFFFF;fontColor=#FFFFFF;fillColor=#182E3E;" parent="1" vertex="1">
          <mxGeometry x="490" y="405" width="120" height="40" as="geometry" />
        </mxCell>
        <mxCell id="ugbAvfdmD2CdIIh8Tc3_-14" value="Email" style="ellipse;whiteSpace=wrap;html=1;align=center;fontStyle=4;strokeColor=#FFFFFF;fontColor=#FFFFFF;fillColor=#182E3E;" parent="1" vertex="1">
          <mxGeometry x="500" y="250" width="100" height="40" as="geometry" />
        </mxCell>
        <mxCell id="ugbAvfdmD2CdIIh8Tc3_-15" value="Name" style="ellipse;whiteSpace=wrap;html=1;align=center;strokeColor=#FFFFFF;fontColor=#FFFFFF;fillColor=#182E3E;" parent="1" vertex="1">
          <mxGeometry x="260" y="405" width="100" height="40" as="geometry" />
        </mxCell>
        <mxCell id="ugbAvfdmD2CdIIh8Tc3_-16" value="First Name" style="ellipse;whiteSpace=wrap;html=1;align=center;strokeColor=#FFFFFF;fontColor=#FFFFFF;fillColor=#182E3E;" parent="1" vertex="1">
          <mxGeometry x="50" y="345" width="100" height="40" as="geometry" />
        </mxCell>
        <mxCell id="ugbAvfdmD2CdIIh8Tc3_-17" value="Last Name" style="ellipse;whiteSpace=wrap;html=1;align=center;strokeColor=#FFFFFF;fontColor=#FFFFFF;fillColor=#182E3E;" parent="1" vertex="1">
          <mxGeometry x="50" y="465" width="100" height="40" as="geometry" />
        </mxCell>
        <mxCell id="ugbAvfdmD2CdIIh8Tc3_-18" value="" style="endArrow=none;html=1;rounded=0;strokeColor=#23445D;exitX=1;exitY=0.5;exitDx=0;exitDy=0;entryX=0;entryY=0.5;entryDx=0;entryDy=0;" parent="1" source="ugbAvfdmD2CdIIh8Tc3_-16" target="ugbAvfdmD2CdIIh8Tc3_-15" edge="1">
          <mxGeometry width="50" height="50" relative="1" as="geometry">
            <mxPoint x="460" y="275" as="sourcePoint" />
            <mxPoint x="510" y="225" as="targetPoint" />
          </mxGeometry>
        </mxCell>
        <mxCell id="ugbAvfdmD2CdIIh8Tc3_-19" value="" style="endArrow=none;html=1;rounded=0;strokeColor=#23445D;exitX=1;exitY=0.5;exitDx=0;exitDy=0;entryX=0;entryY=0.5;entryDx=0;entryDy=0;" parent="1" source="ugbAvfdmD2CdIIh8Tc3_-17" target="ugbAvfdmD2CdIIh8Tc3_-15" edge="1">
          <mxGeometry width="50" height="50" relative="1" as="geometry">
            <mxPoint x="160" y="375" as="sourcePoint" />
            <mxPoint x="270" y="435" as="targetPoint" />
          </mxGeometry>
        </mxCell>
        <mxCell id="ugbAvfdmD2CdIIh8Tc3_-20" value="Address" style="ellipse;whiteSpace=wrap;html=1;align=center;strokeColor=#FFFFFF;fontColor=#FFFFFF;fillColor=#182E3E;" parent="1" vertex="1">
          <mxGeometry x="500" y="560" width="100" height="40" as="geometry" />
        </mxCell>
        <mxCell id="ugbAvfdmD2CdIIh8Tc3_-21" value="Street" style="ellipse;whiteSpace=wrap;html=1;align=center;strokeColor=#FFFFFF;fontColor=#FFFFFF;fillColor=#182E3E;" parent="1" vertex="1">
          <mxGeometry x="255" y="730" width="100" height="40" as="geometry" />
        </mxCell>
        <mxCell id="ugbAvfdmD2CdIIh8Tc3_-22" value="City" style="ellipse;whiteSpace=wrap;html=1;align=center;strokeColor=#FFFFFF;fontColor=#FFFFFF;fillColor=#182E3E;" parent="1" vertex="1">
          <mxGeometry x="378" y="730" width="100" height="40" as="geometry" />
        </mxCell>
        <mxCell id="ugbAvfdmD2CdIIh8Tc3_-23" value="" style="endArrow=none;html=1;rounded=0;strokeColor=#23445D;exitX=0.5;exitY=0;exitDx=0;exitDy=0;entryX=0.5;entryY=1;entryDx=0;entryDy=0;" parent="1" source="ugbAvfdmD2CdIIh8Tc3_-21" target="ugbAvfdmD2CdIIh8Tc3_-20" edge="1">
          <mxGeometry width="50" height="50" relative="1" as="geometry">
            <mxPoint x="700" y="430" as="sourcePoint" />
            <mxPoint x="750" y="380" as="targetPoint" />
          </mxGeometry>
        </mxCell>
        <mxCell id="ugbAvfdmD2CdIIh8Tc3_-24" value="" style="endArrow=none;html=1;rounded=0;strokeColor=#23445D;entryX=0.5;entryY=1;entryDx=0;entryDy=0;exitX=0.5;exitY=0;exitDx=0;exitDy=0;" parent="1" source="ugbAvfdmD2CdIIh8Tc3_-22" target="ugbAvfdmD2CdIIh8Tc3_-20" edge="1">
          <mxGeometry width="50" height="50" relative="1" as="geometry">
            <mxPoint x="580" y="730" as="sourcePoint" />
            <mxPoint x="510" y="590" as="targetPoint" />
          </mxGeometry>
        </mxCell>
        <mxCell id="ugbAvfdmD2CdIIh8Tc3_-25" value="State" style="ellipse;whiteSpace=wrap;html=1;align=center;strokeColor=#FFFFFF;fontColor=#FFFFFF;fillColor=#182E3E;" parent="1" vertex="1">
          <mxGeometry x="500" y="730" width="100" height="40" as="geometry" />
        </mxCell>
        <mxCell id="ugbAvfdmD2CdIIh8Tc3_-26" value="Zip" style="ellipse;whiteSpace=wrap;html=1;align=center;strokeColor=#FFFFFF;fontColor=#FFFFFF;fillColor=#182E3E;" parent="1" vertex="1">
          <mxGeometry x="745" y="730" width="100" height="40" as="geometry" />
        </mxCell>
        <mxCell id="ugbAvfdmD2CdIIh8Tc3_-27" value="Country" style="ellipse;whiteSpace=wrap;html=1;align=center;strokeColor=#FFFFFF;fontColor=#FFFFFF;fillColor=#182E3E;" parent="1" vertex="1">
          <mxGeometry x="623" y="730" width="100" height="40" as="geometry" />
        </mxCell>
        <mxCell id="ugbAvfdmD2CdIIh8Tc3_-28" value="" style="endArrow=none;html=1;rounded=0;strokeColor=#23445D;entryX=0.5;entryY=1;entryDx=0;entryDy=0;exitX=0.5;exitY=0;exitDx=0;exitDy=0;" parent="1" source="ugbAvfdmD2CdIIh8Tc3_-25" target="ugbAvfdmD2CdIIh8Tc3_-20" edge="1">
          <mxGeometry width="50" height="50" relative="1" as="geometry">
            <mxPoint x="480" y="740" as="sourcePoint" />
            <mxPoint x="560" y="610" as="targetPoint" />
          </mxGeometry>
        </mxCell>
        <mxCell id="ugbAvfdmD2CdIIh8Tc3_-29" value="" style="endArrow=none;html=1;rounded=0;strokeColor=#23445D;entryX=0.5;entryY=1;entryDx=0;entryDy=0;exitX=0.5;exitY=0;exitDx=0;exitDy=0;" parent="1" source="ugbAvfdmD2CdIIh8Tc3_-27" target="ugbAvfdmD2CdIIh8Tc3_-20" edge="1">
          <mxGeometry width="50" height="50" relative="1" as="geometry">
            <mxPoint x="600" y="740" as="sourcePoint" />
            <mxPoint x="560" y="610" as="targetPoint" />
          </mxGeometry>
        </mxCell>
        <mxCell id="ugbAvfdmD2CdIIh8Tc3_-30" value="" style="endArrow=none;html=1;rounded=0;strokeColor=#23445D;entryX=0.5;entryY=1;entryDx=0;entryDy=0;exitX=0.5;exitY=0;exitDx=0;exitDy=0;" parent="1" source="ugbAvfdmD2CdIIh8Tc3_-26" target="ugbAvfdmD2CdIIh8Tc3_-20" edge="1">
          <mxGeometry width="50" height="50" relative="1" as="geometry">
            <mxPoint x="730" y="740" as="sourcePoint" />
            <mxPoint x="560" y="610" as="targetPoint" />
          </mxGeometry>
        </mxCell>
        <mxCell id="ugbAvfdmD2CdIIh8Tc3_-31" value="DOB" style="ellipse;whiteSpace=wrap;html=1;align=center;strokeColor=#FFFFFF;fontColor=#FFFFFF;fillColor=#182E3E;" parent="1" vertex="1">
          <mxGeometry x="740" y="250" width="100" height="40" as="geometry" />
        </mxCell>
        <mxCell id="ugbAvfdmD2CdIIh8Tc3_-32" value="Phone" style="ellipse;whiteSpace=wrap;html=1;align=center;strokeColor=#FFFFFF;fontColor=#FFFFFF;fillColor=#182E3E;" parent="1" vertex="1">
          <mxGeometry x="740" y="405" width="100" height="40" as="geometry" />
        </mxCell>
        <mxCell id="ugbAvfdmD2CdIIh8Tc3_-33" value="Password" style="ellipse;whiteSpace=wrap;html=1;align=center;strokeColor=#FFFFFF;fontColor=#FFFFFF;fillColor=#182E3E;" parent="1" vertex="1">
          <mxGeometry x="260" y="260" width="100" height="40" as="geometry" />
        </mxCell>
        <mxCell id="ugbAvfdmD2CdIIh8Tc3_-34" value="" style="endArrow=none;html=1;rounded=0;strokeColor=#23445D;entryX=0.5;entryY=1;entryDx=0;entryDy=0;exitX=0.25;exitY=0;exitDx=0;exitDy=0;" parent="1" source="ugbAvfdmD2CdIIh8Tc3_-12" target="ugbAvfdmD2CdIIh8Tc3_-33" edge="1">
          <mxGeometry width="50" height="50" relative="1" as="geometry">
            <mxPoint x="500" y="620" as="sourcePoint" />
            <mxPoint x="550" y="570" as="targetPoint" />
          </mxGeometry>
        </mxCell>
        <mxCell id="ugbAvfdmD2CdIIh8Tc3_-35" value="" style="endArrow=none;html=1;rounded=0;strokeColor=#23445D;entryX=1;entryY=0.5;entryDx=0;entryDy=0;exitX=0;exitY=0.5;exitDx=0;exitDy=0;" parent="1" source="ugbAvfdmD2CdIIh8Tc3_-12" target="ugbAvfdmD2CdIIh8Tc3_-15" edge="1">
          <mxGeometry width="50" height="50" relative="1" as="geometry">
            <mxPoint x="500" y="415" as="sourcePoint" />
            <mxPoint x="320" y="310" as="targetPoint" />
          </mxGeometry>
        </mxCell>
        <mxCell id="ugbAvfdmD2CdIIh8Tc3_-36" value="" style="endArrow=none;html=1;rounded=0;strokeColor=#23445D;entryX=0.5;entryY=0;entryDx=0;entryDy=0;exitX=0.5;exitY=1;exitDx=0;exitDy=0;" parent="1" source="ugbAvfdmD2CdIIh8Tc3_-14" target="ugbAvfdmD2CdIIh8Tc3_-12" edge="1">
          <mxGeometry width="50" height="50" relative="1" as="geometry">
            <mxPoint x="500" y="435" as="sourcePoint" />
            <mxPoint x="370" y="435" as="targetPoint" />
          </mxGeometry>
        </mxCell>
        <mxCell id="ugbAvfdmD2CdIIh8Tc3_-37" value="" style="endArrow=none;html=1;rounded=0;strokeColor=#23445D;entryX=0.75;entryY=0;entryDx=0;entryDy=0;exitX=0.5;exitY=1;exitDx=0;exitDy=0;" parent="1" source="ugbAvfdmD2CdIIh8Tc3_-31" target="ugbAvfdmD2CdIIh8Tc3_-12" edge="1">
          <mxGeometry width="50" height="50" relative="1" as="geometry">
            <mxPoint x="560" y="300" as="sourcePoint" />
            <mxPoint x="560" y="415" as="targetPoint" />
          </mxGeometry>
        </mxCell>
        <mxCell id="ugbAvfdmD2CdIIh8Tc3_-38" value="" style="endArrow=none;html=1;rounded=0;strokeColor=#23445D;entryX=0.5;entryY=0;entryDx=0;entryDy=0;exitX=0.5;exitY=1;exitDx=0;exitDy=0;" parent="1" source="ugbAvfdmD2CdIIh8Tc3_-12" target="ugbAvfdmD2CdIIh8Tc3_-20" edge="1">
          <mxGeometry width="50" height="50" relative="1" as="geometry">
            <mxPoint x="530" y="415" as="sourcePoint" />
            <mxPoint x="320" y="310" as="targetPoint" />
          </mxGeometry>
        </mxCell>
        <mxCell id="ugbAvfdmD2CdIIh8Tc3_-39" value="" style="endArrow=none;html=1;rounded=0;strokeColor=#23445D;entryX=1;entryY=0.5;entryDx=0;entryDy=0;exitX=0;exitY=0.5;exitDx=0;exitDy=0;" parent="1" source="ugbAvfdmD2CdIIh8Tc3_-32" target="ugbAvfdmD2CdIIh8Tc3_-12" edge="1">
          <mxGeometry width="50" height="50" relative="1" as="geometry">
            <mxPoint x="540" y="425" as="sourcePoint" />
            <mxPoint x="330" y="320" as="targetPoint" />
          </mxGeometry>
        </mxCell>
      </root>
    </mxGraphModel>
  </diagram>
  <diagram id="U1bSplDY5_WWmYXj9NxQ" name="products">
    <mxGraphModel dx="1321" dy="870" grid="1" gridSize="10" guides="1" tooltips="1" connect="1" arrows="1" fold="1" page="1" pageScale="1" pageWidth="1100" pageHeight="850" math="0" shadow="0">
      <root>
        <mxCell id="0" />
        <mxCell id="1" parent="0" />
        <mxCell id="1Y8i_Vt8Bunr1dhVFOgr-8" value="" style="edgeStyle=orthogonalEdgeStyle;rounded=0;orthogonalLoop=1;jettySize=auto;html=1;strokeColor=#23445D;endArrow=none;endFill=0;" edge="1" parent="1" source="1Y8i_Vt8Bunr1dhVFOgr-1" target="1Y8i_Vt8Bunr1dhVFOgr-3">
          <mxGeometry relative="1" as="geometry" />
        </mxCell>
        <mxCell id="1Y8i_Vt8Bunr1dhVFOgr-9" style="edgeStyle=orthogonalEdgeStyle;rounded=0;orthogonalLoop=1;jettySize=auto;html=1;entryX=0;entryY=0.5;entryDx=0;entryDy=0;strokeColor=#23445D;endArrow=none;endFill=0;" edge="1" parent="1" source="1Y8i_Vt8Bunr1dhVFOgr-1" target="1Y8i_Vt8Bunr1dhVFOgr-7">
          <mxGeometry relative="1" as="geometry" />
        </mxCell>
        <mxCell id="1Y8i_Vt8Bunr1dhVFOgr-10" style="edgeStyle=orthogonalEdgeStyle;rounded=0;orthogonalLoop=1;jettySize=auto;html=1;entryX=0.5;entryY=0;entryDx=0;entryDy=0;strokeColor=#23445D;endArrow=none;endFill=0;" edge="1" parent="1" source="1Y8i_Vt8Bunr1dhVFOgr-1" target="1Y8i_Vt8Bunr1dhVFOgr-6">
          <mxGeometry relative="1" as="geometry" />
        </mxCell>
        <mxCell id="1Y8i_Vt8Bunr1dhVFOgr-11" style="edgeStyle=orthogonalEdgeStyle;rounded=0;orthogonalLoop=1;jettySize=auto;html=1;entryX=1;entryY=0.5;entryDx=0;entryDy=0;strokeColor=#23445D;endArrow=none;endFill=0;" edge="1" parent="1" source="1Y8i_Vt8Bunr1dhVFOgr-1" target="1Y8i_Vt8Bunr1dhVFOgr-4">
          <mxGeometry relative="1" as="geometry" />
        </mxCell>
        <mxCell id="1Y8i_Vt8Bunr1dhVFOgr-12" style="rounded=0;orthogonalLoop=1;jettySize=auto;html=1;entryX=1;entryY=0;entryDx=0;entryDy=0;strokeColor=#23445D;endArrow=none;endFill=0;" edge="1" parent="1" source="1Y8i_Vt8Bunr1dhVFOgr-1" target="1Y8i_Vt8Bunr1dhVFOgr-5">
          <mxGeometry relative="1" as="geometry" />
        </mxCell>
        <mxCell id="1Y8i_Vt8Bunr1dhVFOgr-1" value="Product" style="whiteSpace=wrap;html=1;align=center;strokeColor=#FFFFFF;fontColor=#FFFFFF;fillColor=#182E3E;" vertex="1" parent="1">
          <mxGeometry x="500" y="430" width="100" height="40" as="geometry" />
        </mxCell>
        <mxCell id="1Y8i_Vt8Bunr1dhVFOgr-3" value="Product_ID" style="ellipse;whiteSpace=wrap;html=1;align=center;fontStyle=4;strokeColor=#FFFFFF;fontColor=#FFFFFF;fillColor=#182E3E;" vertex="1" parent="1">
          <mxGeometry x="500" y="280" width="100" height="40" as="geometry" />
        </mxCell>
        <mxCell id="1Y8i_Vt8Bunr1dhVFOgr-4" value="Product_Name" style="ellipse;whiteSpace=wrap;html=1;align=center;strokeColor=#FFFFFF;fontColor=#FFFFFF;fillColor=#182E3E;" vertex="1" parent="1">
          <mxGeometry x="260" y="430" width="100" height="40" as="geometry" />
        </mxCell>
        <mxCell id="1Y8i_Vt8Bunr1dhVFOgr-5" value="Product_Price" style="ellipse;whiteSpace=wrap;html=1;align=center;strokeColor=#FFFFFF;fontColor=#FFFFFF;fillColor=#182E3E;" vertex="1" parent="1">
          <mxGeometry x="260" y="600" width="100" height="40" as="geometry" />
        </mxCell>
        <mxCell id="1Y8i_Vt8Bunr1dhVFOgr-6" value="Product_Description" style="ellipse;whiteSpace=wrap;html=1;align=center;strokeColor=#FFFFFF;fontColor=#FFFFFF;fillColor=#182E3E;" vertex="1" parent="1">
          <mxGeometry x="490" y="600" width="120" height="40" as="geometry" />
        </mxCell>
        <mxCell id="1Y8i_Vt8Bunr1dhVFOgr-7" value="Product_Category" style="ellipse;whiteSpace=wrap;html=1;align=center;strokeColor=#FFFFFF;fontColor=#FFFFFF;fillColor=#182E3E;" vertex="1" parent="1">
          <mxGeometry x="740" y="430" width="110" height="40" as="geometry" />
        </mxCell>
      </root>
    </mxGraphModel>
  </diagram>
  <diagram id="ADVplZYVlYZyvyesoB6t" name="transaction">
    <mxGraphModel dx="1558" dy="870" grid="1" gridSize="10" guides="1" tooltips="1" connect="1" arrows="1" fold="1" page="1" pageScale="1" pageWidth="1100" pageHeight="850" math="0" shadow="0">
      <root>
        <mxCell id="0" />
        <mxCell id="1" parent="0" />
        <mxCell id="Q1nYXcDtqhkYo4GkZySP-1" value="Transaction" style="whiteSpace=wrap;html=1;align=center;strokeColor=#FFFFFF;fontColor=#FFFFFF;fillColor=#182E3E;labelBackgroundColor=none;" parent="1" vertex="1">
          <mxGeometry x="500" y="405" width="100" height="40" as="geometry" />
        </mxCell>
        <mxCell id="3SHky4rWye61tedKXQMc-1" value="Transaction_ID" style="ellipse;whiteSpace=wrap;html=1;align=center;fontStyle=4;labelBackgroundColor=none;fillColor=#182E3E;strokeColor=#FFFFFF;fontColor=#FFFFFF;" vertex="1" parent="1">
          <mxGeometry x="500" y="280" width="100" height="40" as="geometry" />
        </mxCell>
        <mxCell id="3SHky4rWye61tedKXQMc-2" value="Trsn_Status" style="ellipse;whiteSpace=wrap;html=1;align=center;strokeColor=#FFFFFF;fontColor=#FFFFFF;fillColor=#182E3E;" vertex="1" parent="1">
          <mxGeometry x="300" y="405" width="100" height="40" as="geometry" />
        </mxCell>
        <mxCell id="3SHky4rWye61tedKXQMc-3" value="Trsn_Time" style="ellipse;whiteSpace=wrap;html=1;align=center;strokeColor=#FFFFFF;fontColor=#FFFFFF;fillColor=#182E3E;" vertex="1" parent="1">
          <mxGeometry x="500" y="530" width="100" height="40" as="geometry" />
        </mxCell>
      </root>
    </mxGraphModel>
  </diagram>
  <diagram id="2zyVf5xR1xvGA76PFNHv" name="order">
    <mxGraphModel dx="1318" dy="870" grid="1" gridSize="10" guides="1" tooltips="1" connect="1" arrows="1" fold="1" page="1" pageScale="1" pageWidth="1100" pageHeight="850" math="0" shadow="0">
      <root>
        <mxCell id="0" />
        <mxCell id="1" parent="0" />
        <mxCell id="8OGqyuSJzcMr2tcg1Gh0-3" style="edgeStyle=orthogonalEdgeStyle;rounded=0;orthogonalLoop=1;jettySize=auto;html=1;entryX=0.5;entryY=1;entryDx=0;entryDy=0;strokeColor=#23445D;endArrow=none;endFill=0;" edge="1" parent="1" source="8OGqyuSJzcMr2tcg1Gh0-1" target="8OGqyuSJzcMr2tcg1Gh0-2">
          <mxGeometry relative="1" as="geometry" />
        </mxCell>
        <mxCell id="8OGqyuSJzcMr2tcg1Gh0-1" value="Order" style="whiteSpace=wrap;html=1;align=center;strokeColor=#FFFFFF;fontColor=#FFFFFF;fillColor=#182E3E;" vertex="1" parent="1">
          <mxGeometry x="500" y="405" width="100" height="40" as="geometry" />
        </mxCell>
        <mxCell id="8OGqyuSJzcMr2tcg1Gh0-2" value="Order_ID" style="ellipse;whiteSpace=wrap;html=1;align=center;fontStyle=4;strokeColor=#FFFFFF;fontColor=#FFFFFF;fillColor=#182E3E;" vertex="1" parent="1">
          <mxGeometry x="500" y="280" width="100" height="40" as="geometry" />
        </mxCell>
      </root>
    </mxGraphModel>
  </diagram>
</mxfile>
